<?xml version="1.0" encoding="iso-8859-1"?>
<!-- Generator: Adobe Illustrator 17.0.0, SVG Export Plug-In . SVG Version: 6.00 Build 0)  -->
<!DOCTYPE svg PUBLIC "-//W3C//DTD SVG 1.1//EN" "http://www.w3.org/Graphics/SVG/1.1/DTD/svg11.dtd">
<svg version="1.1" id="Capa_1" xmlns="http://www.w3.org/2000/svg" xmlns:xlink="http://www.w3.org/1999/xlink" x="0px" y="0px"
	 width="64px" height="64px" viewBox="0 0 64 64" style="enable-background:new 0 0 64 64;" xml:space="preserve">
<g>
	<polygon points="34.775,27.548 42.484,16.513 33.104,7.763 20.001,12.476 20.437,24.824 	"/>
	<polygon points="29.781,49.905 36.837,57.256 49.16,51.992 51.174,41.103 38.939,39.597 	"/>
	<path d="M5.062,42.297l0.156,0.189C9.41,53.183,19.817,60.762,32,60.762c15.885,0,28.762-12.877,28.762-28.762
		S47.885,3.238,32,3.238S3.238,16.115,3.238,32c0,3.557,0.65,6.961,1.831,10.106L5.062,42.297z M4.738,32
		c0-3.633,0.72-7.099,2.015-10.271l6.803-8.442l1.764-2.828C19.934,6.878,25.72,4.738,32,4.738c0.151,0,0.3,0.009,0.451,0.011
		l3.043,1.12L42.2,6.725c4.295,1.74,8.051,4.54,10.936,8.08l-1.115,4.863l4.407,12.427l2.814,0.714
		C58.811,47.468,46.761,59.262,32,59.262c-7.35,0-14.024-2.929-18.932-7.674l5.291-4.545l-5.05-13.016l-7.901-2.721L5.225,37.11
		C4.91,35.454,4.738,33.747,4.738,32z"/>
</g>
</svg>
