<?xml version="1.0" encoding="iso-8859-1"?>
<!-- Generator: Adobe Illustrator 16.0.4, SVG Export Plug-In . SVG Version: 6.00 Build 0)  -->
<!DOCTYPE svg PUBLIC "-//W3C//DTD SVG 1.1//EN" "http://www.w3.org/Graphics/SVG/1.1/DTD/svg11.dtd">
<svg version="1.1" id="Capa_1" xmlns="http://www.w3.org/2000/svg" xmlns:xlink="http://www.w3.org/1999/xlink" x="0px" y="0px"
	 width="40px" height="40px" viewBox="0 0 40 40" style="enable-background:new 0 0 40 40;" xml:space="preserve">
<g id="_x34_28._Network">
	<g>
		<path d="M34,13.999c-2.611,0-4.827,1.672-5.651,4.001H14.828l6.59-6.59C22.201,11.784,23.074,12,24,12c3.313,0,6-2.687,6-6
			c0-3.314-2.687-6-6-6s-6,2.686-6,6c0,0.926,0.216,1.799,0.59,2.581l-7.806,7.807C9.69,14.938,7.956,14,6,14c-3.313,0-6,2.686-6,6
			c0,3.313,2.687,6,6,6c1.957,0,3.69-0.938,4.784-2.388l7.806,7.806C18.216,32.201,18,33.074,18,34c0,3.312,2.687,6,6,6s6-2.688,6-6
			c0-3.314-2.687-6-6-6c-0.926,0-1.799,0.216-2.582,0.59L14.828,22h13.521c0.825,2.329,3.04,4,5.651,4c3.313,0,6-2.687,6-6
			C40,16.686,37.313,13.999,34,13.999z M24,4c1.104,0,2,0.895,2,2c0,1.104-0.896,2-2,2s-2-0.896-2-2C22,4.895,22.896,4,24,4z M6,22
			c-1.104,0-2-0.896-2-2c0-1.105,0.896-2,2-2s2,0.895,2,2C8,21.104,7.104,22,6,22z M24,32c1.104,0,2,0.895,2,2c0,1.104-0.896,2-2,2
			s-2-0.896-2-2C22,32.895,22.896,32,24,32z M34,22c-1.104,0-2-0.896-2-2c0-1.105,0.896-2,2-2s2,0.895,2,2
			C36,21.104,35.104,22,34,22z"/>
	</g>
</g>
<g>
</g>
<g>
</g>
<g>
</g>
<g>
</g>
<g>
</g>
<g>
</g>
<g>
</g>
<g>
</g>
<g>
</g>
<g>
</g>
<g>
</g>
<g>
</g>
<g>
</g>
<g>
</g>
<g>
</g>
</svg>
