<?xml version="1.0" encoding="iso-8859-1"?>
<!-- Generator: Adobe Illustrator 16.0.4, SVG Export Plug-In . SVG Version: 6.00 Build 0)  -->
<!DOCTYPE svg PUBLIC "-//W3C//DTD SVG 1.1//EN" "http://www.w3.org/Graphics/SVG/1.1/DTD/svg11.dtd">
<svg version="1.1" id="Capa_1" xmlns="http://www.w3.org/2000/svg" xmlns:xlink="http://www.w3.org/1999/xlink" x="0px" y="0px"
	 width="36px" height="40px" viewBox="0 0 36 40" style="enable-background:new 0 0 36 40;" xml:space="preserve">
<g id="_x36_4._Trash">
	<g>
		<path d="M18,32c1.104,0,2-0.896,2-2V14c0-1.104-0.896-2-2-2s-2,0.896-2,2v16C16,31.104,16.896,32,18,32z M34,4h-6V2
			c0-1.104-0.896-2-2-2H10C8.896,0,8,0.896,8,2v2H2C0.895,4,0,4.896,0,6s0.895,2,2,2v28c0,2.209,1.791,4,4,4h24c2.209,0,4-1.791,4-4
			V8c1.104,0,2-0.896,2-2S35.104,4,34,4z M30,36H6V8h24V36z M12,32c1.104,0,2-0.896,2-2V14c0-1.104-0.896-2-2-2s-2,0.896-2,2v16
			C10,31.104,10.896,32,12,32z M24,32c1.104,0,2-0.896,2-2V14c0-1.104-0.896-2-2-2s-2,0.896-2,2v16C22,31.104,22.896,32,24,32z"/>
	</g>
</g>
<g>
</g>
<g>
</g>
<g>
</g>
<g>
</g>
<g>
</g>
<g>
</g>
<g>
</g>
<g>
</g>
<g>
</g>
<g>
</g>
<g>
</g>
<g>
</g>
<g>
</g>
<g>
</g>
<g>
</g>
</svg>
